<svg xmlns="http://www.w3.org/2000/svg" width="61" height="23" viewBox="0 0 61 23">
  <path fill="#202026" fill-rule="evenodd" d="M39.6091205,18.762215 C37.3064495,18.762215 35.4397394,16.8955049 35.4397394,14.5928339 C35.4397394,12.2902932 37.3064495,10.4234528 39.6091205,10.4234528 C41.9117915,10.4234528 43.7785016,12.2902932 43.7785016,14.5928339 C43.7785016,16.8955049 41.9117915,18.762215 39.6091205,18.762215 M39.6091205,6.25407166 C38.3851466,6.25407166 37.2229316,6.5181759 36.1758958,6.99179153 L36.1757655,6.99166124 C36.1082736,7.02228013 36.0350489,7.0380456 35.9609121,7.0380456 C35.6730945,7.0380456 35.4397394,6.80469055 35.4397394,6.51687296 L35.4397394,0.521172638 C35.4397394,0.233355049 35.2063844,0 34.9185668,0 L31.2703583,0 L31.2703583,14.5928339 C31.2703583,19.1983062 35.0037785,22.9315961 39.6091205,22.9315961 C44.2144625,22.9315961 47.9478827,19.1983062 47.9478827,14.5928339 C47.9478827,9.98749186 44.2144625,6.25407166 39.6091205,6.25407166 M53.6807818,6.25407166 L50.0325733,6.25407166 L50.0325733,22.4104235 C50.0325733,22.698241 50.2659283,22.9315961 50.5537459,22.9315961 L53.6807818,22.9315961 C53.9685993,22.9315961 54.2019544,22.698241 54.2019544,22.4104235 L54.2019544,6.7752443 C54.2019544,6.48742671 53.9685993,6.25407166 53.6807818,6.25407166 M52.1172638,0 C50.9658632,0 50.0325733,0.933289902 50.0325733,2.08469055 C50.0325733,3.23609121 50.9658632,4.16938111 52.1172638,4.16938111 C53.2686645,4.16938111 54.2019544,3.23609121 54.2019544,2.08469055 C54.2019544,0.933289902 53.2686645,0 52.1172638,0 M28.6644951,6.25407166 L25.0162866,6.25407166 L25.0162866,14.5928339 C25.0162866,16.8955049 23.1495765,18.762215 20.8469055,18.762215 C18.5442345,18.762215 16.6775244,16.8955049 16.6775244,14.5928339 L16.6775244,6.7752443 C16.6775244,6.48742671 16.4441694,6.25407166 16.1563518,6.25407166 L12.5081433,6.25407166 L12.5081433,14.5928339 C12.5081433,19.1983062 16.2415635,22.9315961 20.8469055,22.9315961 C25.4522476,22.9315961 29.1856678,19.1983062 29.1856678,14.5928339 L29.1856678,6.7752443 C29.1856678,6.48742671 28.9523127,6.25407166 28.6644951,6.25407166 M10.6710098,18.6303583 C10.537329,18.4007818 10.252899,18.3074919 10.0096417,18.4140717 C9.49811075,18.6379153 8.93289902,18.762215 8.33876221,18.762215 C6.03609121,18.762215 4.16938111,16.8955049 4.16938111,14.5928339 L4.16938111,10.9446254 C4.16938111,10.6568078 4.40273616,10.4234528 4.69055375,10.4234528 L9.90228013,10.4234528 C10.1900977,10.4234528 10.4234528,10.1900977 10.4234528,9.90228013 L10.4234528,6.77537459 C10.4234528,6.48742671 10.1900977,6.25407166 9.90228013,6.25407166 L4.69055375,6.25407166 C4.40273616,6.25407166 4.16938111,6.02071661 4.16938111,5.73289902 L4.16938111,0.521042345 C4.16938111,0.233355049 3.93602606,0 3.64820847,0 L0,0 L0,14.5928339 C0,19.1983062 3.7334202,22.9315961 8.33876221,22.9315961 C9.65967427,22.9315961 10.9087948,22.6244951 12.0187622,22.077785 C12.2770033,21.9506189 12.3831922,21.6381759 12.2560261,21.3799349 C12.2509446,21.3696417 10.6710098,18.6303583 10.6710098,18.6303583 Z"/>
</svg>
