<?xml version="1.0" encoding="UTF-8"?>
<svg width="32px" height="32px" viewBox="0 0 32 32" version="1.1" xmlns="http://www.w3.org/2000/svg" xmlns:xlink="http://www.w3.org/1999/xlink">
    <!-- Generator: Sketch 56.1 (81669) - https://sketch.com -->
    <title>icon iOS</title>
    <desc>Created with Sketch.</desc>
    <g id="Desktop" stroke="none" stroke-width="1" fill="none" fill-rule="evenodd">
        <g id="1440-/-partners-advertise-with-us" transform="translate(-636.000000, -3252.000000)" fill="#202026">
            <g id="advertise-anywhere" transform="translate(354.000000, 2826.000000)">
                <g id="supported-devices" transform="translate(115.000000, 426.000000)">
                    <path d="M190.933856,22.7181856 L190.934021,22.7183505 C188.170969,22.7183505 186.190103,21.1579381 186.077773,18.9266804 L186.815588,18.9266804 C186.928247,20.7561237 188.64668,22.0364536 190.990433,22.0364536 C193.277773,22.0364536 194.874474,20.7373196 194.874474,18.9827629 C194.874474,17.571134 193.922062,16.7595876 191.662598,16.1903505 L190.066062,15.7977732 C187.573691,15.161567 186.441979,14.1530722 186.441979,12.4641649 C186.441979,10.3627216 188.404041,8.84931959 190.860454,8.84931959 C193.399835,8.84931959 195.296082,10.3440825 195.380701,12.3236289 L194.642557,12.3236289 C194.539464,10.7084536 192.961897,9.53105155 190.841485,9.53105155 C188.813773,9.53105155 187.198433,10.7458969 187.198433,12.4455258 C187.198433,13.7915052 188.188289,14.5656082 190.353897,15.1066392 L191.858227,15.4898144 C194.463093,16.1339381 195.630928,17.1343505 195.630928,18.9265155 C195.630928,21.1577732 193.754639,22.7181856 190.933856,22.7181856 Z M179.569897,22.7183505 C175.889402,22.7183505 173.564289,20.038268 173.564289,15.7778144 C173.564289,11.5389691 175.900124,8.8483299 179.569897,8.8483299 C183.23967,8.8483299 185.574351,11.539134 185.574351,15.7778144 C185.574351,20.038433 183.249072,22.7183505 179.569897,22.7183505 Z M171.871918,9.99785567 C171.554392,9.99785567 171.291959,9.74614433 171.291959,9.42878351 C171.291959,9.10185567 171.553072,8.84882474 171.871918,8.84882474 C172.19868,8.84882474 172.458474,9.10053608 172.458474,9.42878351 C172.458474,9.74614433 172.19868,9.99785567 171.871918,9.99785567 Z M171.506227,22.5220619 L172.258887,22.5220619 L172.258887,12.4636701 L171.506227,12.4636701 L171.506227,22.5220619 Z M191.57732,0 L174.42268,0 C170.323216,0 167,3.32305155 167,7.42268041 L167,24.5773196 C167,28.6766186 170.323216,32 174.42268,32 L191.57732,32 C195.676784,32 199,28.6766186 199,24.5773196 L199,7.42268041 C199,3.32305155 195.676784,0 191.57732,0 Z M179.569897,9.54045361 L179.569897,9.54045361 C176.366433,9.54045361 174.321072,11.9592577 174.321072,15.7776495 C174.321072,19.5990103 176.37567,22.0272165 179.569897,22.0272165 C182.773526,22.0272165 184.818887,19.5990103 184.818887,15.7776495 C184.818887,11.9581031 182.773526,9.54045361 179.569897,9.54045361 Z" id="icon-iOS"></path>
                </g>
            </g>
        </g>
    </g>
</svg>