<?xml version="1.0" encoding="UTF-8"?>
<svg width="32px" height="32px" viewBox="0 0 32 32" version="1.1" xmlns="http://www.w3.org/2000/svg" xmlns:xlink="http://www.w3.org/1999/xlink">
    <!-- Generator: Sketch 56.1 (81669) - https://sketch.com -->
    <title>icon apple tv</title>
    <desc>Created with Sketch.</desc>
    <g id="Desktop" stroke="none" stroke-width="1" fill="none" fill-rule="evenodd">
        <g id="1440-/-partners-advertise-with-us" transform="translate(-698.000000, -3252.000000)" fill="#202026">
            <g id="advertise-anywhere" transform="translate(354.000000, 2826.000000)">
                <g id="supported-devices" transform="translate(115.000000, 426.000000)">
                    <path d="M229,3.24443197 C229,1.45258167 230.458126,-2.94297972e-14 232.244432,7.53545886e-16 L257.755568,4.318171e-13 C259.547418,4.62094127e-13 261,1.45812607 261,3.24443197 L261,28.755568 C261,30.5474183 259.541874,32 257.755568,32 L232.244432,32 C230.452582,32 229,30.5418739 229,28.755568 L229,3.24443197 Z M241.110813,10.0740741 C240.648068,10.0938653 240.087638,10.3841367 239.748839,10.7799613 C239.449009,11.1296063 239.188344,11.6903579 239.260027,12.2247211 C239.77484,12.2643035 240.309203,11.9542409 240.628583,11.5650134 C240.947833,11.1691888 241.169463,10.6216314 241.110813,10.0740741 Z M244.916522,10.839335 L244.916522,12.0004205 L244.030261,12.0004205 L244.030261,12.8910258 L244.870841,12.8910258 L244.870841,17.8058479 C244.870841,18.9207539 245.353071,19.4749083 246.324113,19.4749083 C246.741177,19.4749083 247.151659,19.4221317 247.549238,19.3099814 L247.549238,18.4061819 C247.242892,18.4655556 247.01481,18.498541 246.85196,18.498541 C246.57168,18.498541 246.369664,18.4325702 246.258947,18.2874345 C246.148164,18.1422988 246.089514,17.898207 246.089514,17.5419649 L246.089514,12.8976229 L247.431939,12.8976229 L247.431939,12.0070175 L246.082998,12.0070175 L246.082998,10.3578143 L244.916522,10.839335 Z M253.199087,11.9938234 L251.543929,16.7964952 L251.283199,17.6013386 L251.048601,18.3995848 C250.800969,17.5089795 250.64457,16.9746163 250.58592,16.7898981 L248.989347,12.0004205 L247.699056,12.0004205 L250.338288,19.362758 L251.772011,19.362758 L254.482927,11.9938234 L253.199087,11.9938234 Z M239.338291,12.7656814 C238.973295,12.7656814 238.406414,12.3434684 237.813401,12.3566626 C237.031341,12.3632597 236.307996,12.8118609 235.903965,13.5243452 C235.631896,14.0003902 235.518311,14.5535551 235.517073,15.1226849 L235.517073,15.140563 C235.519289,16.2698506 235.961572,17.4588417 236.483945,18.2280608 C236.875007,18.7954094 237.337623,19.4353259 237.937217,19.4155346 C238.523713,19.3891463 238.745213,19.0329042 239.449009,19.0329042 C240.159386,19.0329042 240.35482,19.4155346 240.973899,19.4023405 C241.606012,19.3891463 242.003526,18.8217977 242.388072,18.2544491 C242.831137,17.6013386 243.013603,16.9614221 243.026636,16.9284367 C243.013603,16.9218397 241.801576,16.4468501 241.788477,15.0350757 C241.78196,13.854199 242.746486,13.2868504 242.792037,13.2604621 C242.251157,12.4622158 241.404061,12.3500655 241.104297,12.3368714 C241.055943,12.3319895 241.007655,12.3296806 240.959693,12.3296806 C240.296496,12.3296806 239.67859,12.7656814 239.338291,12.7656814 Z" id="icon-apple-tv"></path>
                </g>
            </g>
        </g>
    </g>
</svg>