<?xml version="1.0" encoding="UTF-8"?>
<svg width="45px" height="15px" viewBox="0 0 45 15" version="1.1" xmlns="http://www.w3.org/2000/svg" xmlns:xlink="http://www.w3.org/1999/xlink">
    <!-- Generator: Sketch 56.1 (81669) - https://sketch.com -->
    <title>icon cox</title>
    <desc>Created with Sketch.</desc>
    <g id="Desktop" stroke="none" stroke-width="1" fill="none" fill-rule="evenodd">
        <g id="1440-/-partners-advertise-with-us" transform="translate(-748.000000, -3320.000000)" fill="#202026">
            <g id="advertise-anywhere" transform="translate(354.000000, 2826.000000)">
                <g id="supported-devices" transform="translate(115.000000, 426.000000)">
                    <path d="M323.60535,70.9073 L319.5888,75.4496 L323.60535,79.9919 C324.1809,80.64275 324.1197,81.63695 323.469,82.21235 C322.818,82.7879 321.82395,82.72685 321.2484,82.076 L317.4888,77.8244 L313.7295,82.076 C313.15395,82.72685 312.1599,82.78805 311.5089,82.21235 C310.85805,81.63695 310.797,80.64275 311.37255,79.9919 L315.38895,75.4496 L311.37255,70.9073 C310.797,70.25645 310.85805,69.26225 311.5089,68.68685 C312.1599,68.1113 313.15395,68.17235 313.7295,68.8232 L317.4888,73.0748 L321.2484,68.8232 C321.82395,68.1725 322.818,68.1113 323.469,68.68685 C324.1197,69.26225 324.1809,70.25645 323.60535,70.9073 Z M300.9288,71.14625 C298.55595,71.14625 296.62545,73.07675 296.62545,75.4496 C296.62545,77.82245 298.55595,79.75295 300.9288,79.75295 C303.30165,79.75295 305.23215,77.82245 305.23215,75.4496 C305.23215,73.07675 303.30165,71.14625 300.9288,71.14625 Z M293.4792,75.4496 C293.4792,71.34185 296.8212,68 300.9288,68 C305.03655,68 308.3784,71.34185 308.3784,75.4496 C308.3784,79.55735 305.03655,82.8992 300.9288,82.8992 C296.8212,82.8992 293.4792,79.55735 293.4792,75.4496 Z M279,75.4496 C279,71.34185 282.34185,68 286.4496,68 C287.7843,68 289.09425,68.3576 290.238,69.0341 C290.98575,69.4766 291.2334,70.44125 290.79105,71.18915 C290.3487,71.93675 289.38405,72.1844 288.63615,71.74205 C287.9772,71.35235 287.22105,71.14625 286.4496,71.14625 C284.07675,71.14625 282.14625,73.07675 282.14625,75.4496 C282.14625,77.82245 284.07675,79.75295 286.4496,79.75295 C287.22105,79.75295 287.9772,79.54685 288.63615,79.15715 C289.3842,78.7148 290.3487,78.96245 290.79105,79.7102 C291.2334,80.45795 290.98575,81.42275 290.238,81.8651 C289.09425,82.5416 287.7843,82.8992 286.4496,82.8992 C282.34185,82.8992 279,79.55735 279,75.4496 Z" id="icon-cox"></path>
                </g>
            </g>
        </g>
    </g>
</svg>