<?xml version="1.0" encoding="UTF-8"?>
<svg width="26px" height="20px" viewBox="0 0 26 20" version="1.1" xmlns="http://www.w3.org/2000/svg" xmlns:xlink="http://www.w3.org/1999/xlink">
    <!-- Generator: Sketch 56.1 (81669) - https://sketch.com -->
    <title>icon ps4</title>
    <desc>Created with Sketch.</desc>
    <g id="Desktop" stroke="none" stroke-width="1" fill="none" fill-rule="evenodd">
        <g id="1440-/-partners-advertise-with-us" transform="translate(-613.000000, -3317.000000)" fill="#202026">
            <g id="advertise-anywhere" transform="translate(354.000000, 2826.000000)">
                <g id="supported-devices" transform="translate(115.000000, 426.000000)">
                    <path d="M144.484572,79.2377872 C143.567276,79.9148839 143.903117,81.0874579 145.915057,81.6503598 C148.072123,82.3580826 150.263799,82.4969682 152.320136,82.163168 C152.453804,82.1415636 152.597735,82.1178225 152.728778,82.0962181 L152.728778,79.9476467 L150.673634,80.6895567 C149.915069,80.9606803 148.801329,81.0171841 148.185502,80.8165717 C147.570868,80.6176211 147.685202,80.2339646 148.443767,79.9640281 L152.728778,78.4379489 L152.728778,76.0389087 L146.774112,78.1437964 C146.774112,78.1437964 145.333363,78.6124461 144.484572,79.2377872 L144.484572,79.2377872 Z M167.590499,77.8304136 C165.851861,77.1737342 163.636316,76.9515173 161.826787,77.1464319 C160.019645,77.3470444 158.731421,77.8009746 158.731421,77.8009746 L158.47602,77.8869175 L158.47602,80.3683393 L162.928592,78.8073607 C163.687396,78.537899 164.800659,78.4804455 165.416725,78.6810579 C166.032552,78.8811956 165.915592,79.2631902 165.157027,79.5328893 L158.47602,81.9024905 L158.47602,84.2934587 L167.554933,81.0501843 C167.554933,81.0501843 168.773937,80.6036138 169.272805,79.9782727 C169.770479,79.3543561 169.550404,78.4464957 167.590499,77.8304136 L167.590499,77.8304136 Z M159.340087,69.7900084 L159.340087,75.9064332 C161.929902,77.1504679 163.967144,75.9052461 163.967144,72.6227989 C163.967144,69.2555958 162.774874,67.7610923 159.258215,66.5583671 C157.874037,66.0963649 155.301885,65.3257282 153.534365,65 L153.534365,83.2590581 L157.689527,84.570755 L157.689527,69.2555958 C157.689527,68.5393262 158.010091,68.0583311 158.529248,68.2266556 C159.207613,68.4142105 159.340087,69.0737388 159.340087,69.7900084 L159.340087,69.7900084 Z" id="icon-ps4"></path>
                </g>
            </g>
        </g>
    </g>
</svg>