<?xml version="1.0" encoding="UTF-8"?>
<svg width="68px" height="13px" viewBox="0 0 68 13" version="1.1" xmlns="http://www.w3.org/2000/svg" xmlns:xlink="http://www.w3.org/1999/xlink">
    <!-- Generator: Sketch 56.1 (81669) - https://sketch.com -->
    <title>icon sony</title>
    <desc>Created with Sketch.</desc>
    <g id="Desktop" stroke="none" stroke-width="1" fill="none" fill-rule="evenodd">
        <g id="1440-/-partners-advertise-with-us" transform="translate(-515.000000, -3321.000000)" fill="#202026" fill-rule="nonzero">
            <g id="advertise-anywhere" transform="translate(354.000000, 2826.000000)">
                <g id="supported-devices" transform="translate(115.000000, 426.000000)">
                    <path d="M70.2254781,81.3201255 C67.7621849,81.3201255 65.4755825,80.5796889 63.9492693,79.206528 C62.7961368,78.1690956 62.2420323,76.7599394 62.2420323,75.3095869 C62.2420323,73.87689 62.8200323,72.4580164 63.9491327,71.4260586 C65.3666187,70.1311841 67.8692371,69.3202624 70.2254781,69.3202624 C72.832964,69.3202624 74.9199359,69.9785803 76.5153415,71.429617 C77.6504499,72.4621223 78.1992291,73.8747002 78.1992291,75.3097238 C78.1992291,76.7006771 77.6168596,78.1819608 76.5153415,79.206528 C75.029719,80.5885851 72.6950524,81.3201255 70.2254781,81.3201255 L70.2254781,79.7374252 C71.5329078,79.7374252 72.745711,79.2849513 73.592707,78.440224 C74.4338315,77.601245 74.825719,76.5699715 74.825719,75.3095869 C74.825719,74.1021689 74.402972,72.973311 73.592707,72.1726541 C72.7570443,71.3476352 71.5152933,70.8833911 70.2254781,70.8833911 C68.931703,70.8833911 67.6891327,71.342845 66.8527873,72.1726541 C66.0468918,72.9730373 65.6230524,74.1051799 65.6230524,75.3095869 C65.6230524,76.5102986 66.0518074,77.6417569 66.8527873,78.4403609 C67.6898155,79.2749602 68.9280162,79.737562 70.2254781,79.737562 L70.2254781,81.3202624 L70.2254781,81.3201255 Z M52.2213175,69.3260107 C50.9036468,69.3260107 49.406691,69.573051 48.1347633,70.142407 C46.9608758,70.667419 46,71.516526 46,72.9241767 C45.9994541,74.1919519 46.8033015,74.9344415 46.7814541,74.9139118 C47.1233657,75.2293844 47.6737834,75.7665773 49.1128436,76.0820498 C49.7559762,76.2230202 51.1309962,76.4395397 52.5002814,76.5829736 C53.8594621,76.7266813 55.1970685,76.863272 55.7418878,77.0015051 C56.1747392,77.1119547 56.9018476,77.2623687 56.9018476,78.0799968 C56.9018476,78.8943402 56.1358235,79.142886 56.002691,79.1968106 C55.869695,79.2495034 54.9507392,79.6721408 53.2988035,79.6721408 C52.0791729,79.6721408 50.61294,79.3045229 50.0784983,79.1129127 C49.4624019,78.8931085 48.8161288,78.6024084 48.2132774,77.8642985 C48.0633497,77.6813107 47.8268517,77.1780602 47.8268517,76.6797368 L46.3318075,76.6797368 L46.3318075,80.8787377 L47.9935746,80.8787377 L47.9935746,80.3114346 C47.9935746,80.2468346 48.0741368,79.9811807 48.3531007,80.1075066 C48.7002011,80.265585 49.7191087,80.6722093 50.784442,80.8951614 C51.657928,81.078286 52.221181,81.209539 53.3071328,81.209539 C55.0789561,81.209539 56.0308195,80.9202076 56.6888356,80.7318821 C57.3087553,80.5539584 58.0747793,80.2345168 58.6970203,79.7371514 C59.0340163,79.4682128 59.7730042,78.7788266 59.7730042,77.5274751 C59.7730042,76.3263528 59.1298717,75.5808522 58.9036147,75.3540679 C58.5954299,75.045028 58.2189721,74.8055152 57.8266749,74.6208851 C57.4848998,74.4596588 56.9455424,74.2659956 56.5042251,74.1577358 C55.6476709,73.9469646 53.7108998,73.6869222 52.7847071,73.5897484 C51.8134541,73.4880582 50.1286107,73.3481827 49.4557111,73.1394644 C49.2517111,73.0760962 48.8357914,72.8775059 48.8357914,72.3935533 C48.8357914,72.0493392 49.0260003,71.7575442 49.4019119,71.5217268 C49.9986187,71.146992 51.2039119,70.9140487 52.4602733,70.9140487 C53.9456227,70.9085741 55.2034862,71.248956 56.0036468,71.6075408 C56.2757834,71.7293502 56.5942091,71.9042629 56.8470926,72.1112019 C57.1324741,72.3444189 57.5331006,72.8290559 57.6779761,73.5050293 L59.0202251,73.5050293 L59.0202251,69.8499277 L57.5214942,69.8499277 L57.5214942,70.2747549 C57.5214942,70.4118931 57.3801689,70.5900906 57.112948,70.4428245 C56.4422332,70.0901248 54.5458798,69.3291585 52.2210444,69.3260107 L52.2213175,69.3260107 Z M85.0653174,69.9902138 L92.3762732,76.6035033 L92.3011728,72.1508926 C92.2937993,71.5670289 92.186474,71.3232734 91.5564499,71.3232734 L90.1818395,71.3232734 L90.1818395,69.9913087 L96.4329238,69.9913087 L96.4329238,71.3232734 L95.0920402,71.3232734 C94.4494539,71.3232734 94.4088997,71.5292543 94.4011165,72.1508926 L94.5144499,80.6587965 L92.3736788,80.6587965 L83.9528756,73.125778 L83.9546507,78.4719766 C83.9620242,79.053103 83.9891969,79.3268318 84.5865865,79.3268318 L86.0879118,79.3268318 L86.0879118,80.6582491 L79.9487953,80.6582491 L79.9487953,79.3269687 L81.3838957,79.3269687 C81.919976,79.3269687 81.8986748,78.8146851 81.8986748,78.4417295 L81.8986748,72.2015325 C81.8986748,71.7987404 81.8422813,71.3242314 81.0006106,71.3242314 L79.8361447,71.3242314 L79.8361447,69.9902138 L85.0653174,69.9902138 Z M103.576064,79.3243683 C103.634779,79.3243683 103.895582,79.3168407 103.946104,79.3013751 C104.090434,79.2562098 104.188337,79.153014 104.233671,79.0454386 C104.252787,79.0002733 104.262345,78.8004512 104.262345,78.7570652 L104.263438,76.6520902 C104.263438,76.6014503 104.259751,76.579552 104.174,76.4667757 C104.079783,76.3435977 100.344562,72.1008002 100.173606,71.9139803 C99.9612772,71.6819951 99.5885061,71.3234102 99.0221125,71.3234102 L97.7231487,71.3234102 L97.7231487,69.9908981 L105.053904,69.9908981 L105.053904,71.3217679 L104.170177,71.3217679 C103.965767,71.3217679 103.829904,71.5161154 104.004546,71.7320874 C104.004546,71.7320874 106.47098,74.6893173 106.494329,74.7202487 C106.517269,74.7517275 106.536932,74.759255 106.568337,74.7305135 C106.599197,74.7010876 109.096627,71.7591866 109.116289,71.7359196 C109.235084,71.5933069 109.154522,71.3232734 108.898498,71.3232734 L107.991968,71.3232734 L107.991968,69.9908981 L114,69.9908981 L114,71.3232734 L112.657751,71.3232734 C112.170827,71.3232734 111.972699,71.4136039 111.606345,71.8287137 C111.438803,72.0186816 107.663711,76.3377126 107.561028,76.4547317 C107.507229,76.5159101 107.511872,76.6011766 107.511872,76.6518165 L107.511872,78.7565177 C107.511872,78.7992194 107.52143,78.9993153 107.540546,79.0442068 C107.586016,79.1523297 107.684466,79.2555255 107.828659,79.3001433 C107.879181,79.3157458 108.136434,79.3234102 108.195012,79.3234102 L109.567984,79.3234102 L109.567984,80.6556487 L102.275052,80.6556487 L102.275052,79.3232734 L103.576337,79.3243683 L103.576064,79.3243683 Z" id="icon-sony"></path>
                </g>
            </g>
        </g>
    </g>
</svg>