<?xml version="1.0" encoding="UTF-8"?>
<svg width="68px" height="21px" viewBox="0 0 68 21" version="1.1" xmlns="http://www.w3.org/2000/svg" xmlns:xlink="http://www.w3.org/1999/xlink">
    <!-- Generator: Sketch 56.1 (81669) - https://sketch.com -->
    <title>icon xbox</title>
    <desc>Created with Sketch.</desc>
    <g id="Desktop" stroke="none" stroke-width="1" fill="none" fill-rule="evenodd">
        <g id="1440-/-partners-advertise-with-us" transform="translate(-822.000000, -3258.000000)" fill="#202026">
            <g id="advertise-anywhere" transform="translate(354.000000, 2826.000000)">
                <g id="supported-devices" transform="translate(115.000000, 426.000000)">
                    <path d="M364.542711,15.3590206 C364.542711,15.3590206 364.542711,15.3596409 364.542095,15.3596409 C364.17432,15.0445307 363.799152,14.7238379 363.395647,14.3957015 C362.992758,14.7213567 362.618823,15.0401886 362.251664,15.3534379 C362.251664,15.3528176 362.251664,15.3528176 362.251048,15.3521973 C359.57929,17.7254484 356.165821,20.8647647 356.198471,23.8006239 C358.066299,25.5876957 360.598217,26.6912016 363.392567,26.6912016 C366.181989,26.6912016 368.708362,25.5914174 370.574958,23.8117892 C370.605144,20.8734488 367.204612,17.7335123 364.542711,15.3590206 L364.542711,15.3590206 Z M366.312589,11.7985236 C366.267002,11.8704779 366.23312,11.9387104 366.190613,12.0094241 C367.544049,13.6631323 371.936403,19.0472985 371.543986,22.7510837 C372.943626,20.9888238 373.785134,18.7669248 373.785134,16.3459109 C373.785134,13.3715934 372.517327,10.6981192 370.499185,8.81055954 C368.858675,9.13001179 367.214469,10.5889471 366.312589,11.7985236 L366.312589,11.7985236 Z M363.399959,9.24538678 C364.627108,8.47808107 366.634777,7.48126598 368.825409,7.54639703 C368.829105,7.54825791 368.834034,7.54701732 368.838962,7.54639703 C367.253895,6.57191258 365.392843,6 363.392567,6 C361.392906,6 359.531855,6.57191258 357.946788,7.54639703 C357.949252,7.54701732 357.952332,7.54763762 357.95418,7.54639703 C360.153437,7.48126598 362.169731,8.47870137 363.399959,9.24538678 L363.399959,9.24538678 Z M360.598217,12.0057024 C360.555094,11.9349887 360.521212,11.8667561 360.475625,11.7948019 C359.572513,10.5889471 357.927691,9.13497415 356.284716,8.81242042 C354.267191,10.6993598 353,13.3722137 353,16.3459109 C353,18.7576204 353.83658,20.9720758 355.226979,22.7312342 C354.838874,19.0305505 359.240468,13.6569294 360.598217,12.0057024 L360.598217,12.0057024 Z M387.089714,9.73045797 L385.410394,9.73045797 L381.757902,14.7275596 L378.107875,9.73045797 L376.433483,9.73045797 L380.911466,15.8546368 L376.00164,22.5929083 L377.683425,22.5929083 L381.75975,17.0164505 L385.839156,22.5929083 L387.519093,22.5929083 L382.608035,15.8546368 L387.089714,9.73045797 Z M404.708411,21.5185563 C401.975049,21.5185563 400.059786,19.3121647 400.059786,16.1536193 C400.059786,12.9975551 401.975049,10.7924041 404.708411,10.7924041 C407.438077,10.7924041 409.343483,12.9975551 409.343483,16.1536193 C409.343483,19.3121647 407.438077,21.5185563 404.708411,21.5185563 L404.708411,21.5185563 Z M404.708411,9.43271606 C401.120604,9.43271606 398.612711,12.1967534 398.612711,16.1536193 C398.612711,20.1166881 401.120604,22.8788646 404.708411,22.8788646 C408.29437,22.8788646 410.794254,20.1166881 410.794254,16.1536193 C410.794254,12.1967534 408.29437,9.43271606 404.708411,9.43271606 L404.708411,9.43271606 Z M393.404723,21.2518291 L389.651202,21.2518291 L389.651202,16.5685971 L393.404723,16.5685971 C394.827772,16.5685971 396.530502,16.9643457 396.530502,18.8103455 C396.530502,20.9329972 394.572732,21.2518291 393.404723,21.2518291 L393.404723,21.2518291 Z M389.651202,11.0721574 L393.404723,11.0721574 C394.421187,11.0721574 396.122068,11.3270989 396.122068,13.1166519 C396.122068,14.4695166 395.130863,15.275901 393.404723,15.275901 L389.651202,15.275901 L389.651202,11.0721574 Z M396.85885,16.3415689 C396.592722,16.1126798 396.303184,15.9358955 396.02227,15.8050132 C396.949408,15.2982316 397.557438,14.3404951 397.557438,13.2295457 C397.557438,12.4064134 397.256195,9.73045797 393.404723,9.73045797 L388.217064,9.73045797 L388.217064,15.275901 L386.488461,15.275901 C386.263607,15.5699211 385.755375,16.2764378 385.560707,16.5667362 L388.217064,16.5667362 L388.217064,22.5929083 L393.404723,22.5935286 C396.214474,22.5935286 397.960943,21.1563036 397.960943,18.8382588 C397.960943,17.825316 397.580847,16.9643457 396.85885,16.3415689 L396.85885,16.3415689 Z M416.091568,15.8546368 L420.570166,9.72983767 L418.891462,9.72983767 L415.242051,14.7256987 L411.589559,9.72983767 L409.910239,9.72983767 L414.390686,15.8546368 L409.483324,22.5941489 L411.164493,22.5941489 L415.242051,17.0158302 L419.322689,22.5941489 L421.000777,22.5941489 L416.091568,15.8546368 Z" id="icon-xbox"></path>
                </g>
            </g>
        </g>
    </g>
</svg>