<?xml version="1.0" encoding="UTF-8"?>
<svg width="62px" height="21px" viewBox="0 0 62 21" version="1.1" xmlns="http://www.w3.org/2000/svg" xmlns:xlink="http://www.w3.org/1999/xlink">
    <!-- Generator: Sketch 56.1 (81669) - https://sketch.com -->
    <title>icon samsung </title>
    <desc>Created with Sketch.</desc>
    <g id="Desktop" stroke="none" stroke-width="1" fill="none" fill-rule="evenodd">
        <g id="1440-/-partners-advertise-with-us" transform="translate(-920.000000, -3259.000000)" fill="#202026" fill-rule="nonzero">
            <g id="advertise-anywhere" transform="translate(354.000000, 2826.000000)">
                <g id="supported-devices" transform="translate(115.000000, 426.000000)">
                    <path d="M502.514565,20.3185147 C497.409352,22.526474 490.645159,24.5001205 483.108703,25.812727 C466.229434,28.7529001 451.870121,27.2609623 451.037755,22.481248 C450.587217,19.8927514 454.198514,16.8709819 460.2864,14.1776743 C459.980041,14.3999254 459.769118,14.7209401 459.696911,15.1634241 C459.651191,15.4478269 459.644468,15.7013017 459.71103,16.0186494 C459.987365,17.3115725 462.235021,17.6860698 462.560437,18.5049883 C462.622292,18.6582834 462.603467,18.8552811 462.574556,18.9742865 C462.52144,19.1847311 462.378903,19.3992097 461.958014,19.3992097 C461.561329,19.3992097 461.320629,19.1719565 461.320629,18.8243531 L461.320629,18.2118451 L459.623625,18.2118451 L459.622281,18.701986 C459.622281,20.1125698 460.732998,20.5381654 461.923052,20.5381654 C463.067386,20.5381654 464.010017,20.1468595 464.15995,19.0926195 C464.236597,18.5460015 464.179448,18.1883129 464.153226,18.0531712 C463.886305,16.7286478 461.484681,16.3333078 461.305837,15.5923815 C461.275582,15.4653079 461.284322,15.3308385 461.299114,15.2588974 C461.342816,15.0571933 461.48132,14.8346465 461.877332,14.8346465 C462.247123,14.8346465 462.465636,15.0632444 462.465636,15.4088307 C462.465636,15.5251468 462.465636,15.7994643 462.465636,15.7994643 L464.043634,15.7994643 L464.043634,15.355043 C464.043634,13.9767318 462.806516,13.7615808 461.910277,13.7615808 C461.599815,13.7615808 461.305007,13.7898711 461.037313,13.8524632 C466.100715,11.7052905 472.729574,9.79125523 480.095244,8.5085343 C496.975186,5.56701652 511.33181,7.05895434 512.162831,11.8379963 C512.605738,14.3761388 509.142583,17.3317374 503.267511,19.9857444 C503.607173,19.7375399 503.83599,19.3691943 503.883551,18.8505746 C503.902376,18.6394577 503.905066,18.5520526 503.90641,18.4337195 L503.90641,16.7353712 L501.662789,16.7353712 L501.662789,17.6591759 L502.312276,17.6591759 L502.312276,18.5776018 C502.312948,18.6576111 502.309587,18.7456885 502.298157,18.818302 C502.268573,18.9870611 502.108555,19.2768426 501.650014,19.2768426 C501.192146,19.2768426 501.0328,18.9877334 501.005233,18.818302 C500.992459,18.7456885 500.987752,18.6576111 500.989097,18.5776018 L500.989097,15.6838206 C500.989097,15.5816239 500.996493,15.4686696 501.015991,15.3852986 C501.049608,15.2279694 501.18475,14.9240686 501.64598,14.9240686 C502.128053,14.9240686 502.249748,15.2454504 502.276642,15.3852986 C502.295467,15.4753931 502.298829,15.6266712 502.297484,15.6259988 L502.297484,15.9803256 L503.892964,15.9803256 L503.892964,15.7692087 C503.892964,15.7692087 503.899687,15.5540577 503.878844,15.3523536 C503.762528,14.1676783 502.780229,13.789147 501.658082,13.789147 C500.534591,13.789147 499.575824,14.1696954 499.435303,15.3523536 C499.423201,15.4579121 499.409082,15.6569268 499.409082,15.7692087 L499.407737,18.4337195 C499.409754,18.5520526 499.412444,18.6394577 499.430597,18.8505746 C499.5375,20.0016326 500.534591,20.4124365 501.658082,20.4124365 C501.957198,20.4124365 502.247561,20.3832129 502.514565,20.3185147 Z M496.275945,18.9305839 L496.240983,18.9305839 L494.786697,13.9626125 L492.436844,13.9626125 L492.436844,20.2241794 L493.993327,20.2241794 L493.906595,15.0854319 L493.940212,15.0854319 L495.503419,20.2241794 L497.755781,20.2241794 L497.755781,13.9626125 L496.189213,13.9626125 L496.275945,18.9305839 Z M467.800036,14.548899 L467.83567,14.548899 L468.678794,20.2900694 L470.380504,20.2900694 L469.212637,13.9626125 L466.398193,13.9626125 L465.224947,20.2900694 L466.933381,20.2900694 L467.800036,14.548899 Z M475.179044,18.7994763 L475.145426,18.7994763 L474.364159,13.9626125 L471.782347,13.9626125 L471.642499,20.2900694 L473.22722,20.2900694 L473.266889,14.6013421 L473.301179,14.6013421 L474.359453,20.2900694 L475.965017,20.2900694 L477.022619,14.6013421 L477.055564,14.6013421 L477.097249,20.2900694 L478.678609,20.2900694 L478.541451,13.9626125 L475.960983,13.9626125 L475.179044,18.7994763 Z M483.135597,18.4935584 C483.198125,18.6455088 483.177955,18.8371277 483.149716,18.9561331 C483.097946,19.1659053 482.956753,19.3770223 482.538553,19.3770223 C482.147247,19.3770223 481.908564,19.149769 481.908564,18.8102338 L481.907219,18.2031046 L480.227697,18.2031046 L480.22568,18.686522 C480.22568,20.0829865 481.326311,20.5045481 482.504263,20.5045481 C483.636495,20.5045481 484.570385,20.1186209 484.717629,19.0737938 C484.794277,18.5312098 484.739817,18.1782277 484.712251,18.0457754 C484.446674,16.7333542 482.069255,16.3420483 481.892428,15.6085178 C481.862172,15.4821166 481.870912,15.3489919 481.886376,15.2810848 C481.931424,15.0780361 482.067238,14.860868 482.459216,14.860868 C482.825645,14.860868 483.039451,15.0840872 483.039451,15.4269841 C483.039451,15.5419554 483.039451,15.8135836 483.039451,15.8135836 L484.605347,15.8135836 L484.605347,15.3738687 C484.605347,14.0103492 483.378314,13.7965428 482.490816,13.7965428 C481.378082,13.7965428 480.465707,14.1636443 480.300982,15.1862839 C480.255263,15.4666526 480.250556,15.7154209 480.315774,16.031424 C480.588075,17.3109002 482.813543,17.682708 483.135597,18.4935584 Z M488.450499,19.3434049 C488.008095,19.3434049 487.87497,19.0395041 487.840681,18.884192 C487.828579,18.8162849 487.825889,18.7241734 487.825889,18.6421471 L487.825889,13.9599231 L486.227048,13.9599231 L486.227048,18.4989372 C486.223686,18.6152532 486.235116,18.8546087 486.240495,18.9144476 C486.351432,20.0957611 487.285995,20.4789989 488.449827,20.4789989 C489.612315,20.4789989 490.546205,20.0957611 490.658487,18.9144476 C490.663866,18.8546087 490.675295,18.6152532 490.671934,18.4989372 L490.671934,13.9599231 L489.071748,13.9599231 L489.071748,18.6421471 C489.073093,18.7241734 489.069731,18.8156126 489.056956,18.884192 C489.026701,19.0395041 488.889542,19.3434049 488.450499,19.3434049 Z" id="icon-samsung-"></path>
                </g>
            </g>
        </g>
    </g>
</svg>