<?xml version="1.0" encoding="UTF-8"?>
<svg width="66px" height="16px" viewBox="0 0 66 16" version="1.1" xmlns="http://www.w3.org/2000/svg" xmlns:xlink="http://www.w3.org/1999/xlink">
    <!-- Generator: Sketch 56.1 (81669) - https://sketch.com -->
    <title>icon vizio</title>
    <desc>Created with Sketch.</desc>
    <g id="Desktop" stroke="none" stroke-width="1" fill="none" fill-rule="evenodd">
        <g id="1440-/-partners-advertise-with-us" transform="translate(-823.000000, -3319.000000)" fill="#202026">
            <g id="advertise-anywhere" transform="translate(354.000000, 2826.000000)">
                <g id="supported-devices" transform="translate(115.000000, 426.000000)">
                    <path d="M398.356337,82.7267574 L398.356337,67.0000513 L400.328024,67.0000513 L400.328024,82.7267574 L398.356337,82.7267574 Z M372.7696,82.7267574 L372.7696,67.0000513 L374.741036,67.0000513 L374.741036,82.7267574 L372.7696,82.7267574 Z M367.958753,67 L369.93044,67 L369.93044,72.2320659 L369.927176,72.2730856 C369.924414,72.3061578 369.899806,72.6191895 369.804134,73.0498966 C369.706956,73.4726562 369.554283,74.0097582 369.223827,74.5342979 L365.364071,81.2433303 C365.275681,81.4192024 365.042906,81.808377 364.559526,82.1821692 C364.032202,82.5949302 363.20782,82.9551347 362.087886,82.9976926 C362.047709,82.9992309 362.006025,82.9994873 361.965346,83 C361.924415,82.9994873 361.882732,82.9992309 361.842555,82.9976926 C360.72262,82.9551347 359.898238,82.5949302 359.370915,82.1821692 C358.887535,81.808377 358.654759,81.4192024 358.56637,81.2433303 L354.706613,74.5342979 C354.376157,74.0097582 354.223485,73.4726562 354.126307,73.0498966 C354.030635,72.6191895 354.006027,72.3061578 354.003264,72.2730856 L354,72.2320659 L354.000251,67 L355.971687,67 L355.971687,72.1441299 C355.974198,72.1659216 355.977714,72.1971991 355.982987,72.2356551 C355.995291,72.3256421 356.016133,72.4566489 356.048777,72.6035508 C356.111554,72.8970982 356.234596,73.2539698 356.367431,73.4493262 L356.382246,73.4723998 L360.312564,80.3039786 L360.32311,80.3280777 C360.327379,80.3349998 360.334661,80.3462802 360.344956,80.3601243 C360.378605,80.4075534 360.44565,80.488311 360.560908,80.5775289 C360.781128,80.7426333 361.173858,80.9615761 361.965346,80.9867006 C362.756582,80.9615761 363.149312,80.7426333 363.369784,80.5775289 C363.484791,80.488311 363.551585,80.4075534 363.585735,80.3601243 C363.59578,80.3462802 363.603062,80.3349998 363.60733,80.3280777 L363.617877,80.3039786 L367.548194,73.4723998 L367.563009,73.4493262 C367.695845,73.2539698 367.819138,72.8970982 367.881663,72.6035508 C367.914307,72.4566489 367.935149,72.3256421 367.947453,72.2356551 C367.952727,72.1971991 367.956493,72.1659216 367.958753,72.1441299 L367.958753,67 Z M380.722616,80.6909484 L395.009566,80.6909484 L395.009566,82.7265523 L378.534726,82.7265523 L378.534726,80.7253024 C378.533973,80.7158166 378.533722,80.7024852 378.53322,80.6909484 C378.531713,80.6558253 378.530709,80.6153183 378.530458,80.5643 C378.531211,80.2815203 378.563353,79.7523658 378.767502,79.1147655 C378.851874,78.8504446 378.965123,78.5686904 379.119051,78.2766812 C379.235816,78.0531237 379.37744,77.8262334 379.545681,77.6016504 C380.039105,76.9432838 380.762793,76.3033761 381.769228,75.8157541 L382.344764,75.5873255 L390.271439,72.4395744 L390.641319,72.2926725 C391.789126,71.8417119 392.084427,71.0595171 392.363155,70.5449759 C392.678043,69.9535227 392.71144,69.4048839 392.710436,69.2336266 C392.710436,69.1959397 392.70918,69.1818392 392.70918,69.1818392 L392.705916,69.1479979 L392.705916,69.1064654 L379.53865,69.1064654 L379.53865,67.0711179 L394.677854,67.0711179 L394.677854,69.0723678 C394.678356,69.0818536 394.678859,69.095185 394.679361,69.1064654 C394.680616,69.1415886 394.681872,69.1820955 394.681872,69.2336266 C394.681118,69.5158935 394.648977,70.045048 394.444827,70.6831611 C394.360456,70.9469692 394.247207,71.2292362 394.09353,71.5207326 C393.978523,71.74147 393.839159,71.9650275 393.674182,72.186534 C393.244539,72.7626048 392.637364,73.3243186 391.820514,73.7832268 C391.698728,73.8514221 391.573928,73.9180791 391.443102,73.9816597 L390.867566,74.210601 L382.143125,77.6747168 C381.694398,77.943396 381.424208,78.2515567 381.23186,78.549206 C381.23186,78.549206 380.622174,79.78954 380.722616,80.6909484 Z M406.023921,78.8220898 C406.025678,79.8665545 406.854078,80.71233 407.876835,80.7138682 L416.175147,80.7138682 C417.198406,80.71233 418.026555,79.8665545 418.028564,78.8220898 L418.028564,70.9760419 C418.026555,69.9315772 417.198406,69.0858017 416.175147,69.0837507 L407.876835,69.0837507 C406.854078,69.0858017 406.025678,69.9315772 406.023921,70.9760419 L406.023921,78.8220898 Z M407.876835,82.7269112 C405.764277,82.7261421 404.052735,80.9792145 404.051982,78.8220898 L404.051982,70.9760419 C404.052735,68.8189171 405.764277,67.0717332 407.876835,67.0709641 L416.175147,67.0709641 C418.287957,67.0717332 419.999247,68.8189171 420,70.9760419 L420,78.8220898 C419.999247,80.9792145 418.287957,82.7261421 416.175147,82.7269112 L407.876835,82.7269112 Z" id="icon-vizio"></path>
                </g>
            </g>
        </g>
    </g>
</svg>