<?xml version="1.0" encoding="UTF-8"?>
<svg width="50px" height="17px" viewBox="0 0 50 17" version="1.1" xmlns="http://www.w3.org/2000/svg" xmlns:xlink="http://www.w3.org/1999/xlink">
    <!-- Generator: Sketch 56.1 (81669) - https://sketch.com -->
    <title>icon xfinity</title>
    <desc>Created with Sketch.</desc>
    <g id="Desktop" stroke="none" stroke-width="1" fill="none" fill-rule="evenodd">
        <g id="1440-/-partners-advertise-with-us" transform="translate(-668.000000, -3319.000000)" fill="#202026" fill-rule="nonzero">
            <g id="advertise-anywhere" transform="translate(354.000000, 2826.000000)">
                <g id="supported-devices" transform="translate(115.000000, 426.000000)">
                    <path d="M199,80.2065695 L202.450265,75.5742522 L199.320513,71.3283277 L200.612825,71.3283277 C201.442773,71.3283277 201.671107,71.6716863 201.964744,72.0228577 L203.530212,74.195625 L205.009615,72.2161517 C205.62533,71.3861595 205.804397,71.3283277 206.692308,71.3283277 L207.795401,71.3283277 L204.621335,75.5726823 L210.778846,84 L209.416667,84 C208.633937,84 208.334433,83.6660827 208.128381,83.3879277 L203.512249,76.9747312 L201.586012,79.5585974 C201.330726,79.8893297 200.970266,80.2065695 200.282051,80.2065695 L199,80.2065695 Z M211.956691,80.2065695 L210.19387,80.2065695 L210.19387,72.9425534 L208.134615,72.9425534 L209.25641,71.3283277 L210.19387,71.3283277 L210.19387,70.4225838 C210.19387,67.3756705 213.075532,66.634507 214.693386,67.1510155 L214.331828,68.7647546 C213.134402,68.5021354 211.956691,68.9359011 211.956691,70.7633486 L211.956691,71.3283277 L214.224359,71.3283277 L214.224359,72.9425534 L211.956691,72.9425534 L211.956691,80.2065695 Z M217.429487,71.3283277 L217.429487,80.2065695 L215.626603,80.2065695 L215.626603,71.3283277 L217.429487,71.3283277 Z M219.544872,80.2065695 L219.544872,71.3283277 L221.323718,71.3283277 L221.323718,72.2161517 C221.323718,72.2161517 222.194162,71.1445485 224.077483,71.1445485 C226.237246,71.1445485 227.629808,72.759986 227.629808,74.9603355 L227.629808,80.2065695 L226.644231,80.2065695 C226.1113,80.2065695 225.842949,79.7885949 225.842949,79.3994567 L225.842949,75.363892 C225.842949,73.6914401 224.987924,72.8658382 223.661305,72.8658382 C222.030886,72.8658382 221.323718,74.1532227 221.323718,74.1532227 L221.323718,80.2065695 L219.544872,80.2065695 Z M231.509323,71.3283277 L231.509323,80.2065695 L229.706438,80.2065695 L229.706438,71.3283277 L231.509323,71.3283277 Z M232.894231,72.9425534 L232.894231,71.3283277 L234.793269,71.3283277 L234.793269,68.5473863 L236.580128,67.777031 L236.580128,71.3283277 L238.342949,71.3283277 L239.064103,72.9425534 L236.580128,72.9425534 L236.580128,77.1395403 C236.580128,78.3844167 237.688491,78.9676013 239.019849,78.5978884 L239.381408,80.1865111 C239.381408,80.1865111 238.870452,80.3686061 238.072314,80.3686061 C235.976954,80.3686061 234.793269,79.0144523 234.793269,77.2202519 L234.793269,72.9425534 L232.894231,72.9425534 Z M239.785257,71.3283277 L240.666667,71.3283277 C241.686754,71.3283277 241.917676,71.6446248 242.221529,72.3569559 L244.228784,76.6983394 L246.65311,72.1303745 C246.946586,71.6105652 247.225648,71.3283277 248.11859,71.3283277 L249,71.3283277 L242.778817,82.9713104 C242.354323,83.7443501 242.11779,84 241.147436,84 L240.230762,84 L243.219364,78.5579478 L239.785257,71.3283277 Z" id="icon-xfinity"></path>
                </g>
            </g>
        </g>
    </g>
</svg>