<?xml version="1.0" encoding="UTF-8"?>
<svg width="32px" height="32px" viewBox="0 0 32 32" version="1.1" xmlns="http://www.w3.org/2000/svg" xmlns:xlink="http://www.w3.org/1999/xlink">
    <!-- Generator: Sketch 56.1 (81669) - https://sketch.com -->
    <title>icon amazon fire</title>
    <desc>Created with Sketch.</desc>
    <g id="Desktop" stroke="none" stroke-width="1" fill="none" fill-rule="evenodd">
        <g id="1440-/-partners-advertise-with-us" transform="translate(-760.000000, -3252.000000)" fill="#202026">
            <g id="advertise-anywhere" transform="translate(354.000000, 2826.000000)">
                <g id="supported-devices" transform="translate(115.000000, 426.000000)">
                    <path d="M291,3.24443197 C291,1.45258167 292.458126,-2.94297972e-14 294.244432,7.53545886e-16 L319.755568,4.318171e-13 C321.547418,4.62094127e-13 323,1.45812607 323,3.24443197 L323,28.755568 C323,30.5474183 321.541874,32 319.755568,32 L294.244432,32 C292.452582,32 291,30.5418739 291,28.755568 L291,3.24443197 Z M311.93561,20.6287407 C311.925068,20.6500687 311.919805,20.6660687 311.919805,20.6767407 C311.909263,20.6980687 311.914526,20.7194127 311.93561,20.7407407 C311.956678,20.7620687 311.998829,20.7727407 312.062049,20.7727407 C312.283317,20.7407407 312.525653,20.7087407 312.789073,20.6767407 C313.031409,20.6554127 313.242136,20.6447407 313.421268,20.6447407 C313.905941,20.6447407 314.20097,20.7087407 314.306341,20.8367407 C314.348477,20.8900687 314.369561,20.9754127 314.369561,21.0927407 C314.369561,21.4554127 314.174624,22.1007407 313.78478,23.0287407 C313.753171,23.1140687 313.768976,23.1727407 313.832195,23.2047407 C313.853263,23.2154127 313.874331,23.2207407 313.895415,23.2207407 C313.93755,23.2207407 313.984965,23.1994127 314.037659,23.1567407 C314.395892,22.8474127 314.675117,22.4394127 314.875317,21.9327407 C315.075502,21.4260687 315.17561,20.9860687 315.17561,20.6127407 L315.17561,20.5007407 C315.17561,20.3727407 315.154526,20.2767407 315.11239,20.2127407 C315.017561,20.0954127 314.733073,20.0154127 314.258927,19.9727407 C314.164098,19.9514127 314.063989,19.9460687 313.958634,19.9567407 C313.579317,19.9674127 313.189458,20.0260687 312.789073,20.1327407 C312.546721,20.1967407 312.293843,20.3194127 312.030439,20.5007407 C311.988287,20.5434127 311.956678,20.5860687 311.93561,20.6287407 Z M302.579122,15.7967407 C302.579122,16.7247407 302.839902,17.4420687 303.361463,17.9487407 C303.883024,18.4554127 304.549453,18.7087407 305.36078,18.7087407 C305.887604,18.7087407 306.330141,18.6554127 306.68839,18.5487407 C307.257366,18.3887407 307.836868,17.9834127 308.426927,17.3327407 C308.469063,17.3860687 308.542824,17.4900687 308.648195,17.6447407 C308.75355,17.7994127 308.829951,17.9034127 308.877366,17.9567407 C308.92478,18.0100687 309.003805,18.0954127 309.114439,18.2127407 C309.225073,18.3300687 309.354136,18.4527407 309.501659,18.5807407 C309.680775,18.6554127 309.833561,18.6447407 309.96,18.5487407 C310.033746,18.4847407 310.507892,18.0687407 311.382439,17.3007407 C311.466726,17.2367407 311.508878,17.1620687 311.508878,17.0767407 C311.508878,17.0020687 311.477268,16.9167407 311.414049,16.8207407 C311.245458,16.5967407 311.124282,16.4340687 311.050537,16.3327407 C310.976775,16.2314127 310.90039,16.0660687 310.821366,15.8367407 C310.742341,15.6074127 310.702829,15.3540687 310.702829,15.0767407 L310.702829,11.2047407 C310.702829,11.1620687 310.69755,11.0260687 310.687024,10.7967407 C310.676483,10.5674127 310.660678,10.4180687 310.63961,10.3487407 C310.618526,10.2794127 310.586916,10.1540687 310.54478,9.97274074 C310.502629,9.79141274 310.455214,9.65274074 310.402537,9.55674074 C310.349843,9.46074074 310.278721,9.35141274 310.189171,9.22874074 C310.099604,9.10606874 310.002136,8.99141274 309.89678,8.88474074 C309.222434,8.25541274 308.284683,7.94074074 307.083512,7.94074074 L306.68839,7.94074074 C305.750624,7.99406874 304.931409,8.25006874 304.230732,8.70874074 C303.530038,9.16741274 303.090141,9.87141274 302.911024,10.8207407 C302.900483,10.8634127 302.89522,10.9007407 302.89522,10.9327407 C302.89522,11.0820687 302.98477,11.1780687 303.163902,11.2207407 L304.981463,11.4447407 C305.150038,11.4127407 305.255409,11.2900687 305.297561,11.0767407 C305.371307,10.7354127 305.534634,10.4687407 305.787512,10.2767407 C306.04039,10.0847407 306.340683,9.97274074 306.68839,9.94074074 L306.814829,9.94074074 C307.288976,9.94074074 307.636683,10.1007407 307.857951,10.4207407 C308.005458,10.6554127 308.07922,11.1140687 308.07922,11.7967407 L308.07922,12.0687407 C307.436483,12.1220687 306.972878,12.1647407 306.68839,12.1967407 C305.855995,12.3034127 305.155317,12.4794127 304.586341,12.7247407 C303.964672,12.9914127 303.474721,13.3860687 303.116488,13.9087407 C302.758239,14.4314127 302.579122,15.0607407 302.579122,15.7967407 Z M297.821854,20.3567407 C297.80077,20.3887407 297.790244,20.4207407 297.790244,20.4527407 C297.790244,20.5060687 297.821854,20.5594127 297.885073,20.6127407 C299.044092,21.6687407 300.355897,22.4874127 301.820488,23.0687407 C303.285063,23.6500687 304.83922,23.9407407 306.482927,23.9407407 C307.547117,23.9407407 308.637653,23.7914127 309.754537,23.4927407 C310.871404,23.1940687 311.882916,22.7727407 312.789073,22.2287407 C313.084087,22.0474127 313.326439,21.8874127 313.516098,21.7487407 C313.663604,21.6420687 313.692575,21.5247407 313.603024,21.3967407 C313.513458,21.2687407 313.389659,21.2367407 313.23161,21.3007407 C313.189458,21.3220687 313.118336,21.3540687 313.018244,21.3967407 C312.918136,21.4394127 312.841751,21.4714127 312.789073,21.4927407 C310.776575,22.2714127 308.737746,22.6607407 306.672585,22.6607407 C303.574829,22.6607407 300.708868,21.8874127 298.074732,20.3407407 C297.958819,20.2660687 297.874531,20.2714127 297.821854,20.3567407 Z M305.297561,15.4767407 C305.297561,14.5594127 305.761165,13.9674127 306.68839,13.7007407 C307.004488,13.6154127 307.468092,13.5727407 308.07922,13.5727407 L308.07922,13.9727407 C308.07922,14.3140687 308.07658,14.5594127 308.071317,14.7087407 C308.066038,14.8580687 308.034428,15.0527407 307.976488,15.2927407 C307.918531,15.5327407 307.831604,15.7540687 307.715707,15.9567407 C307.473355,16.4154127 307.130927,16.7034127 306.68839,16.8207407 C306.667307,16.8207407 306.627794,16.8260687 306.569854,16.8367407 C306.511897,16.8474127 306.467122,16.8527407 306.435512,16.8527407 C306.087805,16.8527407 305.81122,16.7274127 305.605756,16.4767407 C305.400293,16.2260687 305.297561,15.8927407 305.297561,15.4767407 Z" id="icon-amazon-fire"></path>
                </g>
            </g>
        </g>
    </g>
</svg>