<?xml version="1.0" encoding="UTF-8"?>
<svg width="33px" height="32px" viewBox="0 0 33 32" version="1.1" xmlns="http://www.w3.org/2000/svg" xmlns:xlink="http://www.w3.org/1999/xlink">
    <!-- Generator: Sketch 56.1 (81669) - https://sketch.com -->
    <title>icon roku</title>
    <desc>Created with Sketch.</desc>
    <g id="Desktop" stroke="none" stroke-width="1" fill="none" fill-rule="evenodd">
        <g id="1440-/-partners-advertise-with-us" transform="translate(-574.000000, -3252.000000)" fill="#202026">
            <g id="advertise-anywhere" transform="translate(354.000000, 2826.000000)">
                <g id="supported-devices" transform="translate(115.000000, 426.000000)">
                    <path d="M113.141565,13.4170504 L112.632811,13.4170504 L112.632811,15.493977 L113.141565,15.493977 C113.705684,15.493977 114.168052,15.0288824 114.168052,14.4603507 C114.168052,13.882145 113.705684,13.4170504 113.141565,13.4170504 L113.141565,13.4170504 Z M118.339089,14.8331706 C117.904403,14.8331706 117.534808,15.4284917 117.534808,16.1644575 C117.534808,16.9011674 117.904403,17.4972327 118.339089,17.4972327 C118.784249,17.4972327 119.153844,16.9011674 119.153844,16.1644575 C119.153844,15.4284917 118.784249,14.8331706 118.339089,14.8331706 L118.339089,14.8331706 Z M131.186631,18.5963444 L130.834992,18.5963444 L130.095054,17.9541417 C129.789801,18.3076136 129.16134,18.6990373 128.476018,18.6990373 C127.032802,18.6990373 126.460453,17.813497 126.460453,16.8542858 L126.460453,13.9647458 L124.376805,16.0625087 L126.892895,18.5963444 L124.820469,18.5963444 L122.840816,16.6213664 L122.840816,18.5963444 L121.194846,18.5963444 L121.194846,13.7273615 L122.840816,13.7273615 L122.840816,15.6435515 L124.737422,13.7340589 L128.107171,13.7340589 L128.107171,16.398121 C128.107171,17.1712944 128.292717,17.4131436 128.698224,17.4131436 C129.096998,17.4131436 129.355116,17.2077578 129.540661,16.8825636 L129.540661,13.7340589 L131.186631,13.7340589 L131.186631,18.5963444 Z M118.339089,18.6990373 C116.942259,18.6990373 115.814022,17.5716478 115.814022,16.1644575 C115.814022,14.7587554 116.942259,13.631366 118.339089,13.631366 C119.736667,13.631366 120.873882,14.7587554 120.873882,16.1644575 C120.873882,17.5716478 119.736667,18.6990373 118.339089,18.6990373 L118.339089,18.6990373 Z M114.614708,18.6008093 L113.131091,16.5283475 L112.632811,16.5283475 L112.632811,18.5963444 L110.986093,18.5963444 L110.986093,12.383424 L113.344319,12.383424 C114.704488,12.383424 115.814022,13.3143575 115.814022,14.4603507 C115.814022,15.1591089 115.388314,15.7827078 114.741148,16.1644575 L116.482884,18.6008093 L114.614708,18.6008093 Z M136.450742,3.96781545 C136.449994,3.96781545 136.449994,3.9670713 136.449994,3.9670713 L136.449994,3.96632715 C136.434282,3.83386819 136.423808,3.75349984 136.423808,3.75349984 L136.423808,3.8398214 C136.170927,2.23766336 134.907271,0.987488954 133.294969,0.744895586 L133.398964,0.744895586 C133.398964,0.744895586 133.307688,0.734477466 133.15581,0.717361983 C133.15581,0.717361983 133.155061,0.716617832 133.154313,0.716617832 L133.153565,0.716617832 C131.958741,0.582670573 126.441749,0 121.086362,0 C115.732471,0 110.216976,0.582670573 109.020655,0.716617832 L109.018411,0.716617832 C109.017663,0.716617832 109.017663,0.717361983 109.016914,0.717361983 C108.865036,0.734477466 108.774508,0.744895586 108.774508,0.744895586 L108.877755,0.744895586 C107.266201,0.987488954 106.001797,2.23766336 105.748916,3.8398214 L105.748916,3.75349984 C105.748916,3.75349984 105.738442,3.83386819 105.72273,3.96632715 C105.72273,3.96632715 105.721982,3.96632715 105.721982,3.9670713 L105.721982,3.96781545 C105.591801,5.04013767 105,10.2075252 105,16 C105,21.8028929 105.593297,26.9769778 105.72273,28.0366495 L105.72273,28.0373936 L105.72273,28.0381378 C105.738442,28.166876 105.748916,28.245756 105.748916,28.245756 L105.748916,28.1624111 C105.998056,29.7481978 107.238519,30.9946514 108.832865,31.2551044 L108.774508,31.2551044 C108.774508,31.2551044 108.836606,31.2632901 108.931623,31.2766848 L108.931623,31.2766848 C109.804735,31.395749 114.563084,32 121.086362,32 C127.60964,32 132.367989,31.395749 133.241101,31.2766848 L133.241849,31.2766848 L133.398964,31.2551044 L133.339859,31.2551044 C134.934205,30.9946514 136.174668,29.7481978 136.423808,28.1624111 L136.423808,28.245756 C136.423808,28.245756 136.434282,28.166876 136.449245,28.0381378 C136.449245,28.0381378 136.449994,28.0381378 136.449994,28.0373936 L136.449994,28.0366495 C136.579427,26.977722 137.172724,21.803637 137.172724,16 C137.172724,10.2082694 136.581671,5.04237012 136.450742,3.96781545 L136.450742,3.96781545 Z" id="icon-roku"></path>
                </g>
            </g>
        </g>
    </g>
</svg>