<?xml version="1.0" encoding="UTF-8"?>
<svg width="64px" height="64px" viewBox="0 0 64 64" version="1.1" xmlns="http://www.w3.org/2000/svg" xmlns:xlink="http://www.w3.org/1999/xlink">
    <!-- Generator: Sketch 56.1 (81669) - https://sketch.com -->
    <title>dot</title>
    <desc>Created with Sketch.</desc>
    <defs>
        <linearGradient x1="-1.11022302e-14%" y1="50%" x2="100%" y2="50%" id="linearGradient-1">
            <stop stop-color="red" offset="0%"></stop>
            <stop stop-color="#FF2746" offset="75.279772%"></stop>
            <stop stop-color="#EF1177" offset="100%"></stop>
        </linearGradient>
    </defs>
    <g id="Desktop" stroke="none" stroke-width="1" fill="none" fill-rule="evenodd">
        <g id="1440-/-company-contact-us" transform="translate(-704.000000, -991.000000)">
            <g id="our-locations" transform="translate(285.000000, 617.000000)">
                <g id="map" transform="translate(0.000000, 183.000000)">
                    <g id="dot">
                        <g transform="translate(419.497123, 191.500000)">
                            <circle id="Oval" fill="url(#linearGradient-1)" cx="31.5028769" cy="31.5" r="22"></circle>
                            <path d="M37.0189994,38.6645603 C36.8853186,38.4349837 36.6008887,38.3416938 36.3576313,38.4482736 C35.8461004,38.6721173 35.2808887,38.7964169 34.6867519,38.7964169 C32.3840809,38.7964169 30.5173708,36.9297068 30.5173708,34.6270358 L30.5173708,30.9788274 C30.5173708,30.6910098 30.7507258,30.4576547 31.0385434,30.4576547 L36.2502698,30.4576547 C36.5380874,30.4576547 36.7714424,30.2242997 36.7714424,29.9364821 L36.7714424,26.8095765 C36.7714424,26.5216287 36.5380874,26.2882736 36.2502698,26.2882736 L31.0385434,26.2882736 C30.7507258,26.2882736 30.5173708,26.0549186 30.5173708,25.767101 L30.5173708,20.5552443 C30.5173708,20.267557 30.2840157,20.034202 29.9961981,20.034202 L26.3479896,20.034202 L26.3479896,34.6270358 C26.3479896,39.2325081 30.0814098,42.965798 34.6867519,42.965798 C36.0076639,42.965798 37.2567844,42.6586971 38.3667519,42.111987 C38.6249929,41.9848208 38.7311818,41.6723779 38.6040157,41.4141368 C38.5989343,41.4038436 37.0189994,38.6645603 37.0189994,38.6645603 Z" id="logo" fill="#FFFFFF"></path>
                            <circle id="Oval" stroke="red" cx="31.5028769" cy="31.5" r="31"></circle>
                        </g>
                    </g>
                </g>
            </g>
        </g>
    </g>
</svg>